<svg viewBox="0 0 100 100" xmlns="http://www.w3.org/2000/svg">
  <defs>
    <linearGradient id="pakunaGrad" x1="0%" y1="0%" x2="100%" y2="100%">
      <stop offset="0%" stop-color="#00457C" />
      <stop offset="100%" stop-color="#008894" />
    </linearGradient>
  </defs>
  <path 
    d="M50 85 C20 70 10 50 10 35 C10 20 25 10 40 10 C45 10 50 15 50 15 C50 15 55 10 60 10 C75 10 90 20 90 35 C90 50 80 70 50 85" 
    fill="none" 
    stroke="url(#pakunaGrad)" 
    stroke-width="8"
    stroke-linecap="round"
  />
  <path 
    d="M42 22 C38 22 35 25 35 30 C35 38 45 45 45 55" 
    fill="none" 
    stroke="#00457C" 
    stroke-width="5" 
    stroke-linecap="round"
  />
  <path 
    d="M58 22 C62 22 65 25 65 30 C65 38 55 45 55 55" 
    fill="none" 
    stroke="#008894" 
    stroke-width="5" 
    stroke-linecap="round"
  />
</svg>
