<svg viewBox="0 0 100 100" xmlns="http://www.w3.org/2000/svg">
  <defs>
    <linearGradient id="shieldGrad" x1="0%" y1="0%" x2="100%" y2="100%">
      <stop offset="0%" stopColor="#14b8a6" />
      <stop offset="100%" stopColor="#10b981" />
    </linearGradient>
    <linearGradient id="pawGrad" x1="0%" y1="0%" x2="0%" y2="100%">
      <stop offset="0%" stopColor="#f8fafc" />
      <stop offset="100%" stopColor="#cbd5e1" />
    </linearGradient>
  </defs>
  <path d="M50 5 L90 20 L90 50 C90 75 60 92 50 95 C40 92 10 75 10 50 L10 20 Z" fill="url(#shieldGrad)" />
  <path d="M50 68 C42 68 35 62 38 52 C40 45 45 46 50 46 C55 46 60 45 62 52 C65 62 58 68 50 68 Z" fill="url(#pawGrad)"/>
  <ellipse cx="36" cy="38" rx="6" ry="8" transform="rotate(-25 36 38)" fill="url(#pawGrad)"/>
  <ellipse cx="45" cy="32" rx="6" ry="8" transform="rotate(-10 45 32)" fill="url(#pawGrad)"/>
  <ellipse cx="55" cy="32" rx="6" ry="8" transform="rotate(10 55 32)" fill="url(#pawGrad)"/>
  <ellipse cx="64" cy="38" rx="6" ry="8" transform="rotate(25 64 38)" fill="url(#pawGrad)"/>
</svg>
